<?xml version="1.0" encoding="UTF-8" standalone="no"?>
<!-- Created with Inkscape (http://www.inkscape.org/) -->

<svg
   version="1.1"
   width="512"
   height="437"
   id="svg1"
   xmlns="http://www.w3.org/2000/svg"
   xmlns:svg="http://www.w3.org/2000/svg">
  <defs
     id="defs1" />
  <path
     d="M 330.57812,0 279.39258,176 H 512 V 63.192 C 512,44.557683 503.97866,27.70998 491.18604,16.160522 485.76495,11.266245 479.69517,7.399444 473.09834,4.676985 465.67746,1.614448 457.01197,0 449.008,0 Z M 375.58008,59.900391 H 449.7417 A 2.3579135,2.3579135 0 0 1 452.09961,62.258304 V 116.15039 H 359.2207 Z"
     id="path19"
     style="fill:#f29111" />
  <path
     d="M 0,0 110.56939,389.18979 C 113.32787,398.89929 115.89076,403.91553 119.55628,409.33029 120.88378,411.2913 122.31086,413.146 123.85022,414.96396 127.54738,419.33026 131.76334,423.03082 136.42732,426.16018 141.61386,429.64017 146.86261,432.29715 152.70164,434.10951 159.6188,436.25651 165.72464,437 173.85458,437 H 266.11719 L 307.06641,295.90039 H 452.09961 V 374.79248 A 2.3579135,2.3579135 0 0 1 449.7417,377.15039 H 345.6543 L 328.28516,437 H 448.90821 C 465.26999,437 479.50149,431.17335 490.52206,421.54828 503.76658,409.98088 512,393.56991 512,373.90821 V 235.90039 H 262.00586 L 221.05664,377 H 169.35156 L 79.261719,59.900391 H 141.5918 L 174.57617,176 H 236.82227 L 186.82031,0 Z"
     id="rect6"
     style="fill:#00758a" />
</svg>
